<svg xmlns="http://www.w3.org/2000/svg" width="100" height="100" viewBox="0 0 100 100">
  <title>SVG symbol viewer logo</title>
  <circle stroke="black" stroke-width="5.221" fill="none" cx="42.576" cy="42.576" r="39.956"/>
  <path stroke="black" stroke-width="14.24" stroke-linecap="square" d="M74.257 74.257l15.635 15.635"/>
  <path fill="black" d="M46.488 20.45v11.937l8.451-8.447c0-1.493.57-2.982 1.703-4.124 2.29-2.283 5.994-2.283 8.26 0a5.839 5.839 0 0 1-4.133 9.969l-8.433 8.443h11.939a5.84 5.84 0 0 1 4.129-1.71c3.213 0 5.832 2.62 5.832 5.84 0 3.218-2.619 5.84-5.832 5.84a5.858 5.858 0 0 1-4.13-1.708H52.337l8.428 8.44c1.503 0 3 .573 4.132 1.72a5.817 5.817 0 0 1 0 8.247c-2.266 2.286-5.965 2.286-8.26 0a5.823 5.823 0 0 1-1.7-4.122l-8.45-8.447v11.946a5.858 5.858 0 0 1 1.716 4.13c0 3.22-2.617 5.832-5.848 5.832-3.23 0-5.845-2.61-5.845-5.831 0-1.614.668-3.075 1.714-4.13V52.327l-8.433 8.447a5.82 5.82 0 0 1-1.717 4.122 5.835 5.835 0 0 1-8.26 0 5.818 5.818 0 0 1 0-8.25 5.823 5.823 0 0 1 4.13-1.718l8.452-8.439H20.459a5.848 5.848 0 0 1-9.98-4.133 5.846 5.846 0 0 1 9.98-4.129h11.938l-8.45-8.442a5.871 5.871 0 0 1-4.13-1.706 5.833 5.833 0 0 1 0-8.262 5.839 5.839 0 0 1 8.262 0 5.855 5.855 0 0 1 1.716 4.124l8.433 8.447V20.452a5.88 5.88 0 0 1-1.715-4.139c0-3.22 2.616-5.833 5.847-5.833 3.229 0 5.847 2.61 5.847 5.833a5.878 5.878 0 0 1-1.72 4.137z"/>
</svg>
